<?xml version="1.0" encoding="UTF-8" standalone="no"?>
<!-- Created with Inkscape (http://www.inkscape.org/) -->
<svg
   version="1.1"
   id="svg2"
   viewBox="0 0 540 681"
   xmlns:inkscape="http://www.inkscape.org/namespaces/inkscape"
   xmlns:sodipodi="http://sodipodi.sourceforge.net/DTD/sodipodi-0.dtd"
   xmlns="http://www.w3.org/2000/svg"
   xmlns:svg="http://www.w3.org/2000/svg">
  <defs
     id="defs6" />
  <sodipodi:namedview
     id="namedview4"
     borderopacity="0.25"
     inkscape:showpageshadow="2"
     inkscape:pageopacity="0.0"
     inkscape:pagecheckerboard="0" />
  <g
     id="g8"
     inkscape:groupmode="layer"
     inkscape:label="ink_ext_XXXXXX"
     transform="matrix(1.3333333,0,0,-1.3333333,0,681.14667)">
    <g
       id="g10"
       transform="scale(0.1)">
      <path
         d="m 1915.85,3347.29 c 5.15,43.31 -16.99,72.84 -58.1,83.47 -53.98,13.97 -88.92,-5.35 -108.24,-53.28 -10.49,-26.06 -20.66,-52.32 -29.32,-79.02 -17.79,-54.88 -1.93,-98.4 41.91,-118.47 43.18,-19.78 90.12,-6.07 114.06,39.34 20.57,39.02 42,79.24 39.69,127.96 z m 19.92,792.36 c 0,144.48 -0.38,288.96 0.25,433.44 0.18,41.44 -19.88,68.44 -54.19,87.91 -33.27,18.87 -63.1,4.46 -87.94,-14.24 -32.98,-24.85 -37.68,-64.05 -37.67,-103.13 0.02,-269.04 -0.07,-538.07 0.21,-807.1 0.02,-14.73 1.18,-29.92 4.88,-44.1 15.61,-59.91 47.98,-86.58 95.66,-80.57 46.64,5.89 78.63,47.69 78.73,104.32 0.24,141.16 0.08,282.31 0.07,423.47 z m 345.88,-1813.7 c 9.37,-13.44 4.46,-28.61 4.5,-42.68 0.43,-154.53 -1.16,-309.08 1.21,-463.57 0.65,-42.14 -8.09,-63.14 -54.22,-56 -19.59,3.04 -39.63,0.26 -58.88,-6.66 -43.24,-15.53 -65.72,-50.58 -59.12,-97.02 6.51,-45.71 34.43,-72.81 80.17,-73.42 121.27,-1.63 242.6,-1.69 363.86,0.19 45.77,0.71 74.81,30.57 81.6,73.83 6.84,43.66 -14.56,76.62 -56.1,95.08 -20.53,9.13 -42.32,11.01 -63.53,7.96 -46.66,-6.7 -57.81,12.58 -57.32,57.62 2.33,212.66 1.05,425.35 1.02,638.04 0,33.23 1.78,66.61 -0.73,99.66 -5.4,71.25 -85.81,111.92 -138.44,65.94 -68.63,-59.97 -131.89,-126.45 -194.13,-193.23 -29.45,-31.6 -23.44,-83.9 5.11,-113.88 33.02,-34.66 76.63,-38.53 116.88,-10.78 9.1,6.28 13.78,19.2 28.12,18.92 z m -1.21,-1233.38 c 10.57,-17.15 5.66,-33.89 5.71,-49.62 0.46,-147.97 0.53,-295.95 0.17,-443.919 -0.2,-80.992 7.55,-69.34 -67.79,-70.23 -67.02,-0.789 -103.24,-30.77 -104.15,-86.653 -0.92,-57.218 37.89,-91.41 105.78,-91.699 104.75,-0.437 209.5,-0.34 314.24,0.172 14.7,0.07 29.81,2.168 43.97,6.07 45.21,12.469 63.79,46.239 63.65,89.879 -0.13,40.551 -37.9,77.371 -80.62,81.512 -19.78,1.918 -40,2.039 -59.79,0.34 -28.03,-2.391 -38.33,8.047 -37.26,36.629 1.87,49.808 0.52,99.738 0.51,149.621 -0.04,199.519 -0.34,399.028 0.13,598.548 0.09,38.32 -11.73,69.42 -47.8,85.59 -33.84,15.16 -68.94,16.34 -97.44,-11.51 -63.01,-61.57 -126.1,-123.19 -186.35,-187.43 -31.45,-33.53 -27.44,-74.84 -1.39,-109.87 27.24,-36.63 66.27,-41.82 107.26,-24 14.51,6.31 27.01,17.25 41.17,26.57 z m -695.04,1.77 c 0,-161.289 0,-318.949 0,-476.61 0,-85.519 0,-85.519 -83.96,-89.039 -52.73,-2.211 -91.14,-36.742 -93.73,-84.25 -2.66,-49.019 35.04,-92.043 89.84,-93.16 116.26,-2.371 232.65,-2.601 348.9,0.129 59.5,1.399 96.17,48.051 88.98,103.031 -6.16,47.168 -46.86,77.258 -112.32,73.2 -48.34,-3.012 -61.17,11.847 -60.57,60.23 2.72,219.301 1.24,438.659 1.11,657.989 -0.01,24.89 0.22,49.89 -1.96,74.63 -3.47,39.36 -21.16,70.71 -60.73,82.96 -37.99,11.76 -71.35,1.94 -99.79,-27.3 -48.66,-50.02 -98.64,-98.76 -147.88,-148.2 -52.16,-52.37 -59.91,-97.19 -24.37,-138.87 36.29,-42.54 79.49,-41.8 139.72,2.13 2.28,1.66 6.08,1.24 16.76,3.13 z M 617.414,883.18 c 0,-78.032 -1.254,-156.09 0.266,-234.09 3.086,-158.61 130.773,-289.141 290.234,-298.438 152.416,-8.89 301.146,104.528 317.976,256.688 19.88,179.719 18.6,361.308 0.63,541.24 -16.18,162.06 -157.76,266.87 -333.391,258.53 -145.399,-6.91 -271.703,-138.87 -275.293,-289.84 -1.856,-77.99 -0.324,-156.059 -0.422,-234.09 z m 2815.266,-3.809 c 0.12,0.008 0.23,0.008 0.34,0.008 0,74.711 0.81,149.441 -0.17,224.141 -2.04,155.24 -119.37,290 -262.7,302.95 -173.82,15.71 -311.84,-81.81 -347.02,-244.47 -5.29,-24.5 -8.87,-48.84 -8.11,-73.89 4.95,-164.051 -14.4,-329.071 9.99,-492.071 22.07,-147.379 173.76,-257.957 322.79,-245.187 155.87,13.347 281.63,142.628 284.61,294.429 1.54,78 0.27,156.059 0.27,234.09 z M 1936.17,2113.44 c 0,73.05 0.53,146.11 -0.1,219.16 -1.47,169.55 -135.13,308.16 -298.83,310.55 -172.63,2.52 -314.43,-129.77 -318.16,-302.51 -3.3,-152.68 -4.51,-305.61 0.38,-458.2 5.68,-177.23 160.06,-305.17 322.34,-297.41 160.66,7.68 292.26,138.5 294.15,304.27 0.85,74.7 0.14,149.43 0.22,224.14 z M 598.879,0 C 586.352,16.9805 565.719,13.6094 549.09,17.6484 205.168,101.211 -21.6484,405.09 1.64063,756.262 8.98828,867.07 43.668,970.801 100.238,1066.72 409.875,1591.68 719.574,2116.6 1029.3,2641.5 c 145.15,246.01 290.42,491.94 435.58,737.95 21.52,36.48 32.31,75.31 32.23,118.42 -0.67,364.03 -0.61,728.06 -0.17,1092.1 0.07,63.92 -21.75,115.04 -72.67,155.92 -77.68,62.36 -152.03,128.86 -229.47,191.53 -38.63,31.27 -61.97,66.77 -42.87,116.04 18.55,47.85 60.73,54.99 106.9,54.94 510.32,-0.47 1020.63,-0.58 1530.95,0.16 48.72,0.07 91.66,-8.69 109.89,-58.4 18.34,-49.99 -9.32,-84.57 -46.82,-115.26 -78.38,-64.15 -154.62,-130.92 -233.06,-194.99 -46.07,-37.63 -66.21,-84.54 -66.13,-143.35 0.54,-367.35 0.59,-734.71 -0.16,-1102.07 -0.1,-45.23 14.31,-84.23 36.64,-122.07 C 3043.43,2604.41 3497.73,1836.99 3949.26,1067.95 4206.69,629.488 3949.77,89.1406 3449.03,8.71094 3443.14,7.76953 3437.87,2.98828 3432.31,0 2487.83,0 1543.35,0 598.879,0"
         style="fill:#3C873A;fill-opacity:1;fill-rule:nonzero;stroke:none"
         id="path12" />
      <path
         d="m 1757.68,2108.01 c 0,74.65 0.91,149.31 -0.25,223.94 -1.16,74.51 -52.15,129.1 -121.15,132.37 -73.18,3.47 -136.16,-46.47 -137.95,-120.58 -3.67,-152.53 -3.58,-305.26 -0.14,-457.8 1.7,-74.87 61.71,-123.21 136.72,-121.28 70.5,1.82 121.37,54.5 122.55,129.35 1.13,71.32 0.25,142.66 0.22,214 z m 178.45,5.43 c -0.04,-74.71 0.67,-149.44 -0.18,-224.14 -1.89,-165.77 -133.49,-296.59 -294.15,-304.27 -162.28,-7.76 -316.66,120.18 -322.34,297.41 -4.89,152.59 -3.68,305.52 -0.38,458.2 3.73,172.74 145.53,305.03 318.16,302.51 163.7,-2.39 297.36,-141 298.83,-310.55 0.63,-73.05 0.1,-146.11 0.06,-219.16"
         style="fill:#303030;fill-opacity:1;fill-rule:nonzero;stroke:none"
         id="path14" />
      <path
         d="m 3254.6,877.461 c 0,73 0.75,146.009 -0.2,218.989 -1.04,80.17 -48.97,130.78 -123.57,132.63 -76.96,1.91 -134.8,-47.77 -136.35,-126.47 -2.9,-147.598 -2.33,-295.321 -0.23,-442.938 1.04,-73.301 61.68,-130.863 130.2,-130.703 74.1,0.172 128.65,55.711 129.87,134.472 1.11,71.321 0.24,142.668 0.28,214.02 z m 178.08,1.91 c 0,-78.031 1.27,-156.09 -0.27,-234.09 -2.98,-151.801 -128.74,-281.082 -284.61,-294.429 -149.03,-12.77 -300.72,97.808 -322.79,245.187 -24.39,163 -5.04,328.02 -9.99,492.071 -0.76,25.05 2.82,49.39 8.11,73.89 35.18,162.66 173.2,260.18 347.02,244.47 143.33,-12.95 260.66,-147.71 262.7,-302.95 0.98,-74.7 0.17,-149.43 0.17,-224.141 -0.11,0 -0.22,0 -0.34,-0.008"
         style="fill:#303030;fill-opacity:1;fill-rule:nonzero;stroke:none"
         id="path16" />
      <path
         d="m 1056.88,879.43 c 0,69.808 0.86,139.63 -0.22,209.43 -1.29,83.2 -50.28,137.7 -123.945,140.25 -81.512,2.83 -137.934,-42.38 -140.68,-127.47 -4.707,-146.101 -4.547,-292.558 -0.043,-438.679 2.547,-82.59 65.543,-137.539 137.828,-133.949 72.61,3.597 125.51,63.527 126.84,145.98 1.1,68.129 0.23,136.289 0.22,204.438 z m -439.419,3.75 c 0.051,78.031 -1.481,156.1 0.375,234.09 3.59,150.97 129.894,282.93 275.293,289.84 175.631,8.34 317.211,-96.47 333.391,-258.53 17.97,-179.932 19.25,-361.521 -0.63,-541.24 C 1209.06,455.18 1060.33,341.762 907.914,350.652 748.453,359.949 620.766,490.48 617.68,649.09 c -1.52,78 -0.266,156.058 -0.219,234.09"
         style="fill:#303030;fill-opacity:1;fill-rule:nonzero;stroke:none"
         id="path18" />
      <path
         d="m 1585.4,1094.34 c -10.68,-1.89 -14.48,-1.47 -16.76,-3.13 -60.23,-43.93 -103.43,-44.67 -139.72,-2.13 -35.54,41.68 -27.79,86.5 24.37,138.87 49.24,49.44 99.22,98.18 147.88,148.2 28.44,29.24 61.8,39.06 99.79,27.3 39.57,-12.25 57.26,-43.6 60.73,-82.96 2.18,-24.74 1.95,-49.74 1.96,-74.63 0.13,-219.33 1.61,-438.688 -1.11,-657.989 -0.6,-48.383 12.23,-63.242 60.57,-60.23 65.46,4.058 106.16,-26.032 112.32,-73.2 7.19,-54.98 -29.48,-101.632 -88.98,-103.031 -116.25,-2.73 -232.64,-2.5 -348.9,-0.129 -54.8,1.117 -92.5,44.141 -89.84,93.16 2.59,47.508 41,82.039 93.73,84.25 83.96,3.52 83.96,3.52 83.96,89.039 0,157.661 0,315.321 0,476.61"
         style="fill:#303030;fill-opacity:1;fill-rule:nonzero;stroke:none"
         id="path20" />
      <path
         d="m 2280.44,1092.57 c -14.16,-9.32 -26.66,-20.26 -41.17,-26.57 -40.99,-17.82 -80.02,-12.63 -107.26,24 -26.05,35.03 -30.06,76.34 1.39,109.87 60.25,64.24 123.34,125.86 186.35,187.43 28.5,27.85 63.6,26.67 97.44,11.51 36.07,-16.17 47.89,-47.27 47.8,-85.59 -0.47,-199.52 -0.17,-399.029 -0.13,-598.548 0.01,-49.883 1.36,-99.813 -0.51,-149.621 -1.07,-28.582 9.23,-39.02 37.26,-36.629 19.79,1.699 40.01,1.578 59.79,-0.34 42.72,-4.141 80.49,-40.961 80.62,-81.512 0.14,-43.64 -18.44,-77.41 -63.65,-89.879 -14.16,-3.902 -29.27,-6 -43.97,-6.07 -104.74,-0.512 -209.49,-0.609 -314.24,-0.172 -67.89,0.289 -106.7,34.481 -105.78,91.699 0.91,55.883 37.13,85.864 104.15,86.653 75.34,0.89 67.59,-10.762 67.79,70.23 0.36,147.969 0.29,295.949 -0.17,443.919 -0.05,15.73 4.86,32.47 -5.71,49.62"
         style="fill:#303030;fill-opacity:1;fill-rule:nonzero;stroke:none"
         id="path22" />
      <path
         d="m 2281.65,2325.95 c -14.34,0.28 -19.02,-12.64 -28.12,-18.92 -40.25,-27.75 -83.86,-23.88 -116.88,10.78 -28.55,29.98 -34.56,82.28 -5.11,113.88 62.24,66.78 125.5,133.26 194.13,193.23 52.63,45.98 133.04,5.31 138.44,-65.94 2.51,-33.05 0.73,-66.43 0.73,-99.66 0.03,-212.69 1.31,-425.38 -1.02,-638.04 -0.49,-45.04 10.66,-64.32 57.32,-57.62 21.21,3.05 43,1.17 63.53,-7.96 41.54,-18.46 62.94,-51.42 56.1,-95.08 -6.79,-43.26 -35.83,-73.12 -81.6,-73.83 -121.26,-1.88 -242.59,-1.82 -363.86,-0.19 -45.74,0.61 -73.66,27.71 -80.17,73.42 -6.6,46.44 15.88,81.49 59.12,97.02 19.25,6.92 39.29,9.7 58.88,6.66 46.13,-7.14 54.87,13.86 54.22,56 -2.37,154.49 -0.78,309.04 -1.21,463.57 -0.04,14.07 4.87,29.24 -4.5,42.68"
         style="fill:#303030;fill-opacity:1;fill-rule:nonzero;stroke:none"
         id="path24" />
      <path
         d="m 1935.78,4139.65 c 0,-141.16 0.16,-282.31 -0.08,-423.47 -0.1,-56.63 -32.09,-98.43 -78.73,-104.32 -47.68,-6.01 -80.05,20.66 -95.66,80.57 -3.7,14.18 -4.86,29.37 -4.88,44.1 -0.28,269.03 -0.19,538.06 -0.21,807.1 -0.01,39.08 4.69,78.28 37.67,103.13 24.84,18.7 54.67,33.11 87.94,14.24 34.31,-19.47 54.37,-46.47 54.19,-87.91 -0.63,-144.48 -0.25,-288.96 -0.24,-433.44"
         style="fill:#68A063;fill-opacity:1;fill-rule:nonzero;stroke:none"
         id="path26" />
      <path
         d="m 1915.85,3347.29 c 2.31,-48.72 -19.12,-88.94 -39.69,-127.96 -23.94,-45.41 -70.88,-59.12 -114.06,-39.34 -43.84,20.07 -59.7,63.59 -41.91,118.47 8.66,26.7 18.83,52.96 29.32,79.02 19.32,47.93 54.26,67.25 108.24,53.28 41.11,-10.63 63.25,-40.16 58.1,-83.47"
         style="fill:#68A063;fill-opacity:1;fill-rule:nonzero;stroke:none"
         id="path28" />
      <path
         d="m 1757.69,2108.01 c 0.02,-71.34 0.9,-142.68 -0.23,-214 -1.18,-74.85 -52.05,-127.53 -122.55,-129.35 -75.01,-1.93 -135.02,46.41 -136.72,121.28 -3.44,152.54 -3.53,305.27 0.14,457.8 1.79,74.11 64.77,124.05 137.95,120.58 69,-3.27 119.99,-57.86 121.15,-132.37 1.16,-74.63 0.25,-149.29 0.26,-223.94"
         style="fill:#3C873A;fill-opacity:1;fill-rule:nonzero;stroke:none"
         id="path30" />
      <path
         d="m 3254.58,877.461 c -0.02,-71.352 0.85,-142.699 -0.26,-214.02 -1.22,-78.761 -55.77,-134.3 -129.87,-134.472 -68.52,-0.16 -129.16,57.402 -130.2,130.703 -2.1,147.617 -2.67,295.34 0.23,442.938 1.55,78.7 59.39,128.38 136.35,126.47 74.6,-1.85 122.53,-52.46 123.57,-132.63 0.95,-72.98 0.2,-145.989 0.18,-218.989"
         style="fill:#3C873A;fill-opacity:1;fill-rule:nonzero;stroke:none"
         id="path32" />
      <path
         d="m 1056.88,879.43 c 0.01,-68.149 0.88,-136.309 -0.22,-204.438 -1.33,-82.453 -54.23,-142.383 -126.84,-145.98 -72.285,-3.59 -135.281,51.359 -137.828,133.949 -4.504,146.121 -4.664,292.578 0.043,438.679 2.746,85.09 59.168,130.3 140.68,127.47 73.665,-2.55 122.655,-57.05 123.945,-140.25 1.08,-69.8 0.22,-139.622 0.22,-209.43"
         style="fill:#3C873A;fill-opacity:1;fill-rule:nonzero;stroke:none"
         id="path34" />
    </g>
  </g>
</svg>
